<svg width="17" height="18" viewBox="0 0 17 18" fill="none" xmlns="http://www.w3.org/2000/svg">
<path d="M15.9 7.4H1.5M11.9 1V4.2M5.5 1V4.2M5.34 17H12.06C13.4041 17 14.0762 17 14.5896 16.7384C15.0412 16.5083 15.4083 16.1412 15.6384 15.6896C15.9 15.1762 15.9 14.5041 15.9 13.16V6.44C15.9 5.09587 15.9 4.42381 15.6384 3.91042C15.4083 3.45883 15.0412 3.09168 14.5896 2.86158C14.0762 2.6 13.4041 2.6 12.06 2.6H5.34C3.99587 2.6 3.32381 2.6 2.81042 2.86158C2.35883 3.09168 1.99168 3.45883 1.76158 3.91042C1.5 4.42381 1.5 5.09587 1.5 6.44V13.16C1.5 14.5041 1.5 15.1762 1.76158 15.6896C1.99168 16.1412 2.35883 16.5083 2.81042 16.7384C3.32381 17 3.99587 17 5.34 17Z" stroke="#818B89" stroke-width="1.5" stroke-linecap="round" stroke-linejoin="round"/>
</svg>
